<svg width="352" height="190" viewBox="0 0 352 190" xmlns="http://www.w3.org/2000/svg" xmlns:xlink="http://www.w3.org/1999/xlink"><title>3742C6B8-E0D5-4E84-BB75-4642F5CAF9D2</title><defs><path id="a" d="M0 57.39h49.916V.212H0V57.39z"/><path id="c" d="M.039 57.39h49.916V.212H.04V57.39z"/></defs><g fill="none" fill-rule="evenodd"><path d="M0 9.998C0 4.476 4.483 0 9.991 0h332.018C347.527 0 352 4.486 352 9.998V190H0V9.998z" fill="#E2E6EE" opacity=".5"/><path fill="#DDBD97" d="M26 165.494h300V159H26z"/><path fill="#C4A685" d="M41 190h270v-25H41z"/><path d="M39.5 125.5l16 31" stroke="#3B5D5E" stroke-width="3" stroke-linecap="square"/><g fill-rule="nonzero"><path d="M57.418 67.803l8.617 4.77a1.5 1.5 0 1 1-1.453 2.624l-8.617-4.77a1.5 1.5 0 1 1 1.453-2.624zM46 155h22a2 2 0 1 1 0 4H46a2 2 0 1 1 0-4z" fill="#3B5D5E"/><path fill="#3B5D5E" d="M62.543 71.93L39.07 113.544l-2.612-1.474L59.93 70.457z"/><path d="M37 124a5 5 0 1 1 0-10 5 5 0 0 1 0 10zm0 3a8 8 0 1 0 0-16 8 8 0 0 0 0 16z" fill="#3B5D5E"/><path d="M87.359 77.314a7.213 7.213 0 0 1 4.327 4.321c1.37 3.766-.578 7.944-4.344 9.315a7.211 7.211 0 0 1-6.09-.538l6.107-13.098z" fill="#F1DB13"/><path d="M84.187 84.116l-2.936 6.296a7.211 7.211 0 0 0 6.091.538 7.24 7.24 0 0 0 3.976-3.51l-7.13-3.324z" fill="#000" style="mix-blend-mode:overlay"/><path d="M75.871 101.792l16.376-35.12a1.209 1.209 0 0 0-.592-1.612 20.464 20.464 0 0 0-15.639-.644C65.346 68.3 59.826 80.14 63.709 90.808a20.461 20.461 0 0 0 10.547 11.567 1.21 1.21 0 0 0 1.615-.583z" fill="#58C5D1"/><path d="M84.065 84.088l-8.325 17.854a1.212 1.212 0 0 1-1.616.583A20.461 20.461 0 0 1 63.578 90.96c-1.965-5.4-1.523-11.098.777-15.914l19.71 9.043z" fill="#000" style="mix-blend-mode:overlay"/></g><g transform="translate(116 55)" fill-rule="nonzero"><path fill="#B3B3B3" d="M73.754 96.606h-26.41l2.2-15.413h22.009z"/><path d="M114.043 0H7.957C3.563 0 0 3.243 0 7.242v67.595h122V7.242c0-4-3.563-7.242-7.957-7.242z" fill="#444"/><path d="M0 74.807v6.842c0 2.267 3.563 4.105 7.957 4.105h106.086c4.394 0 7.957-1.838 7.957-4.105v-6.842H0z" fill="#E2E2E2"/><rect fill="#43A6DD" x="6.373" y="7.298" width="109.254" height="60.353" rx="2"/><path d="M90.42 103.685H31.865c0-4.864 4.766-8.808 10.646-8.808h37.261c5.88 0 10.646 3.944 10.646 8.808z" fill="#E2E2E2"/></g><g transform="translate(122 61)" fill-rule="nonzero"><path d="M110.759 8V2.286c0-1.263-2.155-2.286-4.816-2.286H4.816C2.155 0 0 1.023 0 2.286V8h110.759z" fill="#444"/><path d="M105.59 62.143H22.837V7h88.27v51.697c0 1.904-2.47 3.446-5.517 3.446z" fill="#5A5A5A"/><ellipse fill="#F05C32" cx="5.174" cy="4.174" rx="2.217" ry="2.217"/><ellipse fill="#F2C613" cx="12.565" cy="4.174" rx="2.217" ry="2.217"/><ellipse fill="#72C472" cx="19.957" cy="4.174" rx="2.217" ry="2.217"/><path d="M25.32 62.501H3.375C1.51 62.501 0 60.959 0 59.055V7.358h25.32V62.5z" fill="#4F4F4F"/><path fill="#B3B3B3" d="M5.913 11.783h10.348v2.957H5.913zM5.913 20.652h7.391v2.957H5.913zM5.913 29.522h10.348v2.957H5.913zM5.913 38.391h7.391v2.957H5.913zM5.913 47.261h10.348v2.957H5.913z"/><path fill="#F05C32" d="M28.087 11.783h7.391v2.957h-7.391z"/><path fill="#F2C613" d="M34 20.652h10.348v2.957H34z"/><path fill="#FFF" d="M38.435 29.522h14.783v2.957H38.435z"/><path fill="#F2C613" d="M34 38.391h10.348v2.957H34z"/><path fill="#F05C32" d="M28.087 47.261h7.391v2.957h-7.391z"/></g><path d="M117.668 57.806c1.455-1.707 3.731-2.806 6.289-2.806h106.086c4.394 0 7.957 3.243 7.957 7.242v74.407c0 .985-.672 1.889-1.793 2.596l-118.54-81.44z" fill-opacity=".1" fill="#FFF" fill-rule="nonzero" style="mix-blend-mode:overlay"/><g fill-rule="nonzero"><path d="M272.522 126.933a.868.868 0 0 1-.87-.866v-5.2c0-.48.39-.867.87-.867s.87.388.87.867v5.2a.868.868 0 0 1-.87.866zM263.826 128.667a.868.868 0 0 1-.87-.867v-5.2c0-.479.39-.867.87-.867s.87.388.87.867v5.2a.868.868 0 0 1-.87.867zM281.217 128.667a.868.868 0 0 1-.87-.867v-5.2c0-.479.39-.867.87-.867.481 0 .87.388.87.867v5.2a.868.868 0 0 1-.87.867z" fill="#FFF"/><path d="M291.652 144.267h-3.574a.868.868 0 1 1 0-1.734h3.574a2.607 2.607 0 0 0 2.609-2.6v-3.466c0-1.434-1.17-2.6-2.609-2.6h-3.478a.868.868 0 1 1 0-1.734h3.478c2.397 0 4.348 1.944 4.348 4.334v3.466c0 2.39-1.95 4.334-4.348 4.334z" fill="#F38075"/><path d="M272.522 155.533c-9.11 0-16.522-7.387-16.522-16.466V133c0-.479.389-.867.87-.867h31.304c.48 0 .87.388.87.867v6.067c0 9.08-7.412 16.466-16.522 16.466z" fill="#F38075"/><path d="M260.08 149.89a16.512 16.512 0 0 0 12.442 5.643c9.11 0 16.521-7.387 16.521-16.466V133a.863.863 0 0 0-.296-.652C287.134 142.909 278.012 151 267 151c-2.418 0-4.744-.39-6.92-1.11z" fill="#F05C32"/><path d="M284.696 159h-24.348c-2.397 0-4.348-1.944-4.348-4.333 0-.48.389-.867.87-.867h31.304c.48 0 .87.388.87.867 0 2.389-1.951 4.333-4.348 4.333z" fill="#F05C32"/></g><g><g transform="translate(275 11.176)"><mask id="b" fill="#fff"><use xlink:href="#a"/></mask><path d="M49.916 55.53c0 1.023-.843 1.86-1.874 1.86H1.874A1.873 1.873 0 0 1 0 55.53V2.073C0 1.049.843.213 1.874.213h46.168c1.031 0 1.874.836 1.874 1.86V55.53z" fill="#C9CACB" mask="url(#b)"/></g><g transform="translate(275 11.176)"><mask id="d" fill="#fff"><use xlink:href="#c"/></mask><path d="M49.955 55.53c0 1.023-.843 1.86-1.874 1.86L.039 2.073c0-1.024.843-1.86 1.874-1.86H48.08c1.031 0 1.874.836 1.874 1.86V55.53z" fill="#DFE0E0" mask="url(#d)"/></g><path d="M321.076 62.306c0 1.024-.844 1.861-1.874 1.861h-38.488a1.873 1.873 0 0 1-1.874-1.86v-44.66c0-1.024.843-1.86 1.874-1.86h38.488c1.03 0 1.874.836 1.874 1.86v44.66z" fill="#FFF"/><path d="M321.086 62.371s-13.521-36.045-40.67-46.584h40.67V62.37z" fill="#58C5D1" opacity=".1"/><path d="M314.727 28.611c0 3.096-2.53 5.607-5.649 5.607s-5.648-2.51-5.648-5.607c0-3.096 2.53-5.607 5.648-5.607 3.12 0 5.649 2.511 5.649 5.607" fill="#F2DC13"/><path d="M314.727 28.611c0 3.096-2.53 5.607-5.649 5.607s-5.648-2.51-5.648-5.607c0-3.096 2.53-5.607 5.648-5.607 3.12 0 5.649 2.511 5.649 5.607z" stroke="#F2DC13"/><path d="M316.038 27.24a.267.267 0 0 0-.267-.266h-2.447c-.146 0-.182-.083-.078-.187l1.73-1.717a.264.264 0 0 0 0-.375l-1.953-1.939a.27.27 0 0 0-.378 0l-1.73 1.716c-.104.103-.189.068-.189-.078v-2.427a.266.266 0 0 0-.267-.264h-2.762a.266.266 0 0 0-.267.264v2.43c0 .145-.085.18-.19.077l-1.73-1.718a.27.27 0 0 0-.377 0l-1.953 1.939a.263.263 0 0 0 0 .375l1.73 1.717c.104.104.068.187-.079.187h-2.446a.268.268 0 0 0-.267.266v2.742c0 .146.12.265.267.265h2.446c.147 0 .183.085.079.188l-1.73 1.717a.264.264 0 0 0 0 .375l1.953 1.94a.27.27 0 0 0 .378 0l1.73-1.718c.104-.104.189-.069.189.078v2.428c0 .145.12.265.267.265h2.762c.147 0 .267-.12.267-.265v-2.428c0-.146.085-.18.19-.078l1.73 1.717a.27.27 0 0 0 .376 0l1.954-1.94a.264.264 0 0 0 0-.374l-1.73-1.717c-.104-.103-.068-.188.078-.188h2.447a.267.267 0 0 0 .267-.265V27.24z" fill="#F2DC13"/><path d="M316.038 27.24a.267.267 0 0 0-.267-.266h-2.447c-.146 0-.182-.083-.078-.187l1.73-1.717a.264.264 0 0 0 0-.375l-1.953-1.939a.27.27 0 0 0-.378 0l-1.73 1.716c-.104.103-.189.068-.189-.078v-2.427a.266.266 0 0 0-.267-.264h-2.762a.266.266 0 0 0-.267.264v2.43c0 .145-.085.18-.19.077l-1.73-1.718a.27.27 0 0 0-.377 0l-1.953 1.939a.263.263 0 0 0 0 .375l1.73 1.717c.104.104.068.187-.079.187h-2.446a.268.268 0 0 0-.267.266v2.742c0 .146.12.265.267.265h2.446c.147 0 .183.085.079.188l-1.73 1.717a.264.264 0 0 0 0 .375l1.953 1.94a.27.27 0 0 0 .378 0l1.73-1.718c.104-.104.189-.069.189.078v2.428c0 .145.12.265.267.265h2.762c.147 0 .267-.12.267-.265v-2.428c0-.146.085-.18.19-.078l1.73 1.717a.27.27 0 0 0 .376 0l1.954-1.94a.264.264 0 0 0 0-.374l-1.73-1.717c-.104-.103-.068-.188.078-.188h2.447a.267.267 0 0 0 .267-.265V27.24z" stroke="#F2DC13"/><path d="M302.553 44.969c0 4.913-4.012 8.895-8.962 8.895s-8.962-3.982-8.962-8.895c0-4.913 4.012-8.897 8.962-8.897s8.962 3.984 8.962 8.897" fill="#9EC63E"/><path d="M293.576 36.073c-4.943.008-8.947 3.988-8.947 8.895 0 4.91 4.004 8.887 8.947 8.897V36.073z" fill="#ADDE48"/><path d="M293.576 60.222a.993.993 0 0 1-.997-.99V44.97c0-.547.446-.99.997-.99.55 0 .997.443.997.99v14.264c0 .546-.447.99-.997.99" fill="#A5A7AA"/><path d="M293.584 47.834l4.287-1.304" fill="#C9CBC7"/><path d="M293.584 48.576a.74.74 0 0 1-.22-1.452l4.287-1.304a.75.75 0 0 1 .934.492.741.741 0 0 1-.495.927l-4.287 1.304a.757.757 0 0 1-.22.033" fill="#A5A7AA"/><path d="M293.576 51.793l-3.552-2.342" fill="#C9CBC7"/><path d="M293.575 52.535a.749.749 0 0 1-.413-.124l-3.552-2.342a.739.739 0 0 1-.209-1.029.75.75 0 0 1 1.036-.207l3.552 2.342a.739.739 0 0 1 .21 1.029.749.749 0 0 1-.624.331" fill="#A5A7AA"/></g></g></svg>