<svg width="44" height="44" viewBox="0 0 44 44" xmlns="http://www.w3.org/2000/svg"><title>94F93812-BA56-43E4-8FC3-274313C11672</title><path d="M22 0C9.9 0 0 9.9 0 22s9.9 22 22 22 22-9.9 22-22S34.1 0 22 0zm8.617 28.05c.733.733.733 1.833 0 2.567-.367.366-.734.55-1.284.55s-.916-.184-1.283-.55L22 24.567l-6.05 6.05c-.367.366-.733.55-1.283.55-.55 0-.917-.184-1.284-.55-.733-.734-.733-1.834 0-2.567l6.05-6.05-6.05-6.05c-.733-.733-.733-1.833 0-2.567.734-.733 1.834-.733 2.567 0l6.05 6.05 6.05-6.05c.733-.733 1.833-.733 2.567 0 .733.734.733 1.834 0 2.567L24.567 22l6.05 6.05z" fill-rule="nonzero" fill="#FFF"/></svg>