<?xml version="1.0" encoding="UTF-8"?>
<svg width="352px" height="190px" viewBox="0 0 352 190" version="1.1" xmlns="http://www.w3.org/2000/svg" xmlns:xlink="http://www.w3.org/1999/xlink">
    <!-- Generator: Sketch 42 (36781) - http://www.bohemiancoding.com/sketch -->
    <title>math-image</title>
    <desc>Created with Sketch.</desc>
    <defs>
        <path d="M0,9.998 C0,4.476 4.483,0 9.991,0 L342.009,0 C347.527,0 352,4.486 352,9.998 L352,190 L0,190 L0,9.998 Z" id="path-1"></path>
        <polygon id="path-3" points="38.38 52.762 38.38 0.415 0.387 0.415 0.387 52.762"></polygon>
    </defs>
    <g id="Page-1" stroke="none" stroke-width="1" fill="none" fill-rule="evenodd">
        <g id="Desktop-HD" transform="translate(-545.000000, -417.000000)">
            <g id="math-image" transform="translate(545.000000, 417.000000)">
                <g id="Group">
                    <path d="M0,9.998 C0,4.476 4.483,0 9.991,0 L342.009,0 C347.527,0 352,4.486 352,9.998 L352,190 L0,190 L0,9.998 Z" id="Shape" fill="#E2E6EE" fill-rule="nonzero" opacity="0.5"></path>
                    <g id="Group-2">
                        <mask id="mask-2" fill="white">
                            <use xlink:href="#path-1"></use>
                        </mask>
                        <use id="Mask" fill="#E2E6EE" fill-rule="nonzero" opacity="0.5" xlink:href="#path-1"></use>
                        <g mask="url(#mask-2)">
                            <g transform="translate(0.000000, 5.000000)">
                                <path d="M189.947,17.975 L214.987,29.138 L221.164,14.975 L196.124,3.811 L189.947,17.975 L189.947,17.975 Z M216.202,32.306 L186.812,19.204 L194.908,0.643 L224.297,13.745 L216.202,32.306 L216.202,32.306 Z M235.31,141.319 L230.406,164.831 L248.094,180.881 L270.684,173.419 L275.589,149.907 L257.902,133.857 L235.31,141.319 L235.31,141.319 Z M233.46,163.823 L237.702,143.489 L257.238,137.036 L272.535,150.916 L268.294,171.249 L248.756,177.703 L233.459,163.823 L233.46,163.823 Z" id="Shape" stroke="none" fill="#F1C513" fill-rule="nonzero"></path>
                                <polygon id="Shape" stroke="none" fill="#E9EBEB" fill-rule="nonzero" points="154.335 117.389 157.005 109.957 159.67 102.526 163.899 106.228 168.127 109.932 161.23 113.66"></polygon>
                                <polygon id="Shape" stroke="none" fill="#424143" fill-rule="nonzero" points="156.308 111.895 154.334 117.389 159.432 114.633"></polygon>
                                <path d="M203.612,51.245 L200.917,54.439 L209.468,61.817 L212.166,58.624 C214.178,56.237 213.901,52.649 211.536,50.61 C210.405722,49.6325759 208.930586,49.1494238 207.441077,49.2687875 C205.951568,49.3881513 204.572199,50.1000529 203.612,51.245" id="Shape" stroke="none" fill="#F05C32" fill-rule="nonzero"></path>
                                <polygon id="Shape" stroke="none" fill="#F6E358" fill-rule="nonzero" points="168.157 109.96 159.704 102.555 197.637 58.289 206.089 65.692"></polygon>
                                <polygon id="Shape" stroke="none" fill="#F1DB13" fill-rule="nonzero" points="163.93 106.258 159.704 102.555 197.637 58.289 201.863 61.991"></polygon>
                                <polygon id="Shape" stroke="none" fill="#E9EBEB" fill-rule="nonzero" points="206.089 65.692 197.637 58.289 201.052 54.302 209.505 61.707"></polygon>
                                <path d="M271.59,15.679 C266.675,15.679 262.676,19.721 262.676,24.691 C262.676,29.661 266.675,33.703 271.59,33.703 C276.505,33.703 280.504,29.66 280.504,24.691 C280.504,19.721 276.504,15.679 271.59,15.679 M271.59,35.692 C265.59,35.692 260.71,30.757 260.71,24.691 C260.71,18.625 265.59,13.691 271.59,13.691 C277.59,13.691 282.47,18.625 282.47,24.691 C282.47,30.757 277.59,35.691 271.59,35.691" id="Shape" stroke="none" fill="#FF9106" fill-rule="nonzero"></path>
                                <polygon id="Shape" stroke="none" fill="#F65B30" fill-rule="nonzero" points="208.705 144.517 183.923 134.778 193.555 109.723 218.335 119.463"></polygon>
                                <polygon id="Shape" stroke="#F05C32" stroke-width="4.722" stroke-linecap="round" stroke-linejoin="round" fill="none" points="208.705 144.517 183.923 134.778 193.555 109.723 218.335 119.463"></polygon>
                                <polygon id="Shape" stroke="none" fill="#FF5E48" fill-rule="nonzero" points="67.527 102.481 56.289 98.065 60.657 86.705 71.893 91.121"></polygon>
                                <polygon id="Shape" stroke="#F65B30" stroke-width="2.537" stroke-linecap="round" stroke-linejoin="round" fill="none" points="67.527 102.481 56.289 98.065 60.657 86.705 71.893 91.121"></polygon>
                                <path d="M156.433,120.762 C159.221,131.891 152.559,143.197 141.55,146.018 C130.546,148.836 119.36,142.1 116.572,130.972 C113.782,119.843 120.444,108.536 131.453,105.714 C138.186,103.991 144.986,105.844 149.891,110.087" id="Shape" stroke="#ADD14D" stroke-width="4.722" fill="none"></path>
                                <polygon id="Shape" stroke="none" fill="#57C7E5" fill-rule="nonzero" points="150.166 58.069 136.502 26.287 170.39 31.49"></polygon>
                                <path d="M66.021,129.912 L66.444,174.16 L105.814,151.648 L66.021,129.912 L66.021,129.912 Z M63.707,178.957 L63.193,125.169 L111.565,151.591 L63.707,178.957 Z M238.684,91.878 L263.249,105.296 L238.946,119.192 L238.684,91.878 Z" id="Shape" stroke="none" fill="#FFFFFF" fill-rule="nonzero"></path>
                                <path d="M101.293,53.979 C93.829,53.979 87.756,60.119 87.756,67.666 C87.756,75.212 93.829,81.352 101.293,81.352 C108.757,81.352 114.83,75.212 114.83,67.666 C114.83,60.119 108.757,53.979 101.293,53.979 M101.293,83.591 C92.608,83.591 85.542,76.447 85.542,67.666 C85.542,58.884 92.608,51.74 101.293,51.74 C109.978,51.74 117.044,58.884 117.044,67.666 C117.044,76.446 109.978,83.591 101.293,83.591" id="Shape" stroke="none" fill="#D8D8D8" fill-rule="nonzero"></path>
                                <polygon id="Shape" stroke="none" fill="#ACDD48" fill-rule="nonzero" points="267.994 81.56 263.4 77.392 264.673 71.284 270.543 69.346 275.137 73.515 273.863 79.622"></polygon>
                                <path d="M88.706,33.408 C81.557,33.408 75.741,39.288 75.741,46.516 C75.741,53.744 81.557,59.624 88.706,59.624 C95.854,59.624 101.67,53.744 101.67,46.516 C101.67,39.288 95.854,33.408 88.706,33.408 M88.706,61.914 C80.308,61.914 73.476,55.007 73.476,46.516 C73.476,38.026 80.308,31.118 88.706,31.118 C97.103,31.118 103.935,38.025 103.935,46.516 C103.935,55.006 97.103,61.914 88.705,61.914" id="Shape" stroke="none" fill="#FFFFFF" fill-rule="nonzero"></path>
                                <g id="Group" stroke="none" stroke-width="1" fill="none" fill-rule="evenodd" transform="translate(313.520000, 30.103000)">
                                    <g id="Clipped">
                                        <mask id="mask-4" fill="white">
                                            <use xlink:href="#path-3"></use>
                                        </mask>
                                        <g id="a"></g>
                                        <path d="M38.38,46.904 C34.0091542,49.5861712 28.8709656,50.7399508 23.773,50.184 C10.904,48.79 1.557,37.072 2.936,24.063 C4.313,11.053 15.906,1.595 28.775,2.993 C32.179058,3.36671342 35.4587047,4.48701753 38.38,6.274 L38.38,3.474 C35.4799878,1.91203637 32.3060974,0.923675755 29.032,0.563 C14.838,-0.966 2.054,9.454 0.536,23.802 C-0.986,38.15 9.322,51.073 23.516,52.612 C28.6509286,53.1699172 33.8342342,52.1555041 38.38,49.703 L38.38,46.904 Z" id="Shape" fill="#ADD14D" fill-rule="nonzero" mask="url(#mask-4)"></path>
                                    </g>
                                </g>
                                <path d="M30.669,82.23 L16.793,35.228 C16.6587909,34.7676052 16.2909018,34.4126512 15.826,34.295 C15.3625279,34.180914 14.8733281,34.3213924 14.541,34.664 L0,49.652 L0,75.79 L29.018,83.932 C29.490543,84.0628493 29.9968201,83.9251573 30.338,83.573 C30.683,83.219 30.808,82.705 30.668,82.23" id="Shape" stroke="none" fill="#FFFFFF" fill-rule="nonzero"></path>
                            </g>
                        </g>
                    </g>
                </g>
            </g>
        </g>
    </g>
</svg>