<svg width="35" height="37" viewBox="0 0 35 37" xmlns="http://www.w3.org/2000/svg"><title>969E4242-B471-4F51-A3A1-496451F046EF</title><g stroke-width="2" stroke="#999" fill="none" fill-rule="evenodd"><path d="M29.633 9.283c-3.266-2.45-7.116-3.266-12.133-1.4-5.017-1.866-8.867-1.05-12.133 1.4-3.85 3.15-8.867 14.117 4.55 25.55 3.15 2.684 7.583 0 7.583 0s4.433 2.684 7.583 0c13.417-11.433 8.4-22.4 4.55-25.55z" stroke-linecap="square"/><path d="M22.283 12.083c-1.283 1.05-3.033 1.75-4.783 1.75-1.75 0-3.5-.7-4.783-1.75M17.5 13.833c0-7.116.7-10.266 4.667-12.833"/></g></svg>