<svg width="371" height="75" viewBox="0 0 371 75" xmlns="http://www.w3.org/2000/svg" xmlns:xlink="http://www.w3.org/1999/xlink"><title>63CBB104-78E8-4B36-BF4F-7FF202742C4A</title><defs><path d="M298.263 48c5.057 13.439 18.03 23 33.237 23 19.606 0 35.5-15.894 35.5-35.5 0-11.478-5.448-21.684-13.899-28.174A35.345 35.345 0 0 0 331.5 0c-15.581 0-28.818 10.038-33.596 24H10.007A10 10 0 0 0 0 34.004v3.992C0 43.514 4.48 48 10.007 48h288.256z" id="a"/><mask id="b" x="-2" y="-2" width="371" height="75"><path fill="#fff" d="M-2-2h371v75H-2z"/><use xlink:href="#a"/></mask><mask id="c" x="-2" y="-2" width="371" height="75"><path fill="#fff" d="M-2-2h371v75H-2z"/><use xlink:href="#a"/></mask></defs><g fill="none" fill-rule="evenodd"><g transform="translate(2 2)"><mask id="d" fill="#fff"><use xlink:href="#a"/></mask><g stroke="#E2E2E2" mask="url(#b)" stroke-width="4"><use mask="url(#c)" xlink:href="#a"/></g><path fill="#F3C81C" mask="url(#d)" d="M-1 24h118v24H-1z"/><path d="M57 24v24" stroke="#FFF" stroke-linecap="square" mask="url(#d)"/><path d="M117 24v24M177 24v24M237 24v24" stroke="#E2E2E2" stroke-linecap="square" mask="url(#d)"/></g><g stroke-width="2" stroke="#999"><path d="M323.02 36.364a7.02 7.02 0 0 1-7.02-7.02v-6.071h6.545M344.98 36.364a7.02 7.02 0 0 0 7.02-7.02v-6.071h-6.545"/><path d="M334 51.09v-6.545M334 44.545c-6.326 0-11.455-5.128-11.455-11.454V20h22.91v13.09c0 6.327-5.129 11.455-11.455 11.455zM342.182 56h-16.364a4.91 4.91 0 0 1 4.91-4.91h6.545a4.91 4.91 0 0 1 4.909 4.91z" stroke-linecap="square"/></g></g></svg>