<svg width="373" height="75" viewBox="0 0 373 75" xmlns="http://www.w3.org/2000/svg" xmlns:xlink="http://www.w3.org/1999/xlink"><title>8F6AEEF4-1FC1-48EE-8F0A-14B5CA24945C</title><defs><path d="M300.262 47.996C305.318 61.437 318.292 71 333.5 71c19.606 0 35.5-15.894 35.5-35.5 0-11.478-5.448-21.684-13.899-28.174A35.345 35.345 0 0 0 333.5 0c-15.581 0-28.818 10.038-33.596 24H10.007A10 10 0 0 0 0 34.004v3.992C0 43.514 4.48 48 10.007 48h289.986c.09 0 .18-.001.269-.004z" id="a"/><mask id="b" x="-2" y="-2" width="373" height="75"><path fill="#fff" d="M-2-2h373v75H-2z"/><use xlink:href="#a"/></mask><mask id="c" x="-2" y="-2" width="373" height="75"><path fill="#fff" d="M-2-2h373v75H-2z"/><use xlink:href="#a"/></mask></defs><g transform="translate(2 2)" fill="none" fill-rule="evenodd"><mask id="d" fill="#fff"><use xlink:href="#a"/></mask><g stroke="#E2E2E2" mask="url(#b)" stroke-width="4"><use mask="url(#c)" xlink:href="#a"/></g><path d="M60 24v24" stroke="#FFF" stroke-linecap="square" mask="url(#d)"/><path d="M121 24v24M59 24v24M183 24v24M245 24v24" stroke="#E2E2E2" stroke-linecap="square" mask="url(#d)"/></g></svg>