<svg width="110" height="110" viewBox="0 0 110 110" xmlns="http://www.w3.org/2000/svg" xmlns:xlink="http://www.w3.org/1999/xlink"><title>6821BFAB-D478-4086-9F9F-57E3CE5413CC</title><defs><rect id="a" width="110" height="110" rx="55"/><mask id="b" x="0" y="0" width="110" height="110" fill="#fff"><use xlink:href="#a"/></mask><mask id="c" x="0" y="0" width="110" height="110" fill="#fff"><use xlink:href="#a"/></mask></defs><g fill="none" fill-rule="evenodd"><mask id="d" fill="#fff"><use xlink:href="#a"/></mask><g stroke="#E2E2E2" mask="url(#b)" stroke-width="4" fill="#FFF"><use mask="url(#c)" xlink:href="#a"/></g><g mask="url(#d)"><g transform="translate(28 13)"><path d="M57.6 102V82.886c0-10.569-7.708-19.136-17.282-19.136H17.282C7.737 63.75 0 72.286 0 82.886V102h57.6z" fill="#B8B8CA"/><ellipse fill="#B8B8CA" fill-rule="nonzero" cx="29.04" cy="4.564" rx="4.56" ry="4.564"/><path d="M59.246 30.332h.194s-.086-.03-.212-.07c.004.024.014.046.018.07z" fill="#3FAA7C" fill-rule="nonzero"/><path d="M30.56 67.324h-3.04c-13.432 0-24.32-10.898-24.32-24.341v-12.17h51.68v12.17c0 13.443-10.888 24.34-24.32 24.34z" fill="#EEBC99" fill-rule="nonzero"/><path d="M54.88 30.426H3.2v-1.521c0-14.283 11.569-25.862 25.84-25.862 14.271 0 25.84 11.579 25.84 25.862v1.521z" fill="#D1D1DE" fill-rule="nonzero"/><path d="M60.436 41.075H26.782c-3.499 0-6.934-.93-9.956-2.694L3.2 30.426h51.68l7.3 5.114c2.434 1.706 1.228 5.535-1.744 5.535z" fill="#B8B8CA" fill-rule="nonzero"/><path d="M42.72 45.64c0-.84-.68-1.522-1.52-1.522H16.88c-.84 0-1.52.681-1.52 1.521v1.522h27.36v-1.522z" fill="#FFF" fill-rule="nonzero"/><path d="M15.45 47.16c.759 6.836 6.561 12.171 13.59 12.171s12.831-5.335 13.59-12.17H15.45z" fill="#AE453E" fill-rule="nonzero"/><path d="M21.613 57.12a13.58 13.58 0 0 0 14.854 0c-1.649-2.336-4.35-3.874-7.427-3.874s-5.778 1.538-7.427 3.875z" fill="#FA645A" fill-rule="nonzero"/></g></g></g><g fill="none" fill-rule="evenodd" transform="translate(86,86)"><circle fill="#FFF" cx="12.5" cy="12.5" r="11.5"/><path d="M12 0C5.4 0 0 5.4 0 12s5.4 12 12 12 12-5.4 12-12S18.6 0 12 0zm5 13h-4v4c0 .6-.4 1-1 1s-1-.4-1-1v-4H7c-.6 0-1-.4-1-1s.4-1 1-1h4V7c0-.6.4-1 1-1s1 .4 1 1v4h4c.6 0 1 .4 1 1s-.4 1-1 1z" fill="#999" fill-rule="nonzero"/></g></svg>