<svg width="353" height="190" viewBox="0 0 353 190" xmlns="http://www.w3.org/2000/svg" xmlns:xlink="http://www.w3.org/1999/xlink"><title>0D31AF01-DE38-421E-A8C2-17EEE45EA049</title><defs><path id="a" d="M38.38 52.762V.415H.387v52.347H38.38z"/></defs><g fill="none" fill-rule="evenodd"><path d="M1 9.998C1 4.476 5.483 0 10.991 0h332.018C348.527 0 353 4.486 353 9.998V190H1V9.998z" fill="#E2E6EE" opacity=".5"/><path d="M190.947 22.975l25.04 11.163 6.177-14.163-25.04-11.164-6.177 14.164zm26.255 14.331l-29.39-13.102 8.096-18.561 29.389 13.102-8.095 18.561zM236.31 146.319l-4.904 23.512 17.688 16.05 22.59-7.462 4.905-23.512-17.687-16.05-22.592 7.462zm-1.85 22.504l4.242-20.334 19.536-6.453 15.297 13.88-4.241 20.333-19.538 6.454-15.297-13.88z" fill="#F1C513"/><path fill="#E9EBEB" d="M155.335 122.389l2.67-7.432 2.665-7.431 4.229 3.702 4.228 3.704-6.897 3.728z"/><path fill="#424143" d="M157.308 116.895l-1.974 5.494 5.098-2.756z"/><path d="M204.612 56.245l-2.695 3.194 8.551 7.378 2.698-3.193c2.012-2.387 1.735-5.975-.63-8.014a5.579 5.579 0 0 0-7.924.635" fill="#F05C32"/><path fill="#F6E358" d="M169.157 114.96l-8.453-7.405 37.933-44.266 8.452 7.403z"/><path fill="#F1DB13" d="M164.93 111.258l-4.226-3.703 37.933-44.266 4.226 3.702z"/><path fill="#E9EBEB" d="M207.089 70.692l-8.452-7.403 3.415-3.987 8.453 7.405z"/><path d="M272.59 20.679c-4.915 0-8.914 4.042-8.914 9.012 0 4.97 3.999 9.012 8.914 9.012 4.915 0 8.914-4.043 8.914-9.012 0-4.97-4-9.012-8.914-9.012m0 20.013c-6 0-10.88-4.935-10.88-11.001s4.88-11 10.88-11c6 0 10.88 4.934 10.88 11s-4.88 11-10.88 11" fill="#FF9106"/><path fill="#F65B30" d="M209.705 149.517l-24.782-9.739 9.632-25.055 24.78 9.74z"/><path stroke="#F05C32" stroke-width="4.722" stroke-linecap="round" stroke-linejoin="round" d="M209.705 149.517l-24.782-9.739 9.632-25.055 24.78 9.74z"/><path fill="#FF5E48" d="M68.527 107.481l-11.238-4.416 4.368-11.36 11.236 4.416z"/><path stroke="#F65B30" stroke-width="2.537" stroke-linecap="round" stroke-linejoin="round" d="M68.527 107.481l-11.238-4.416 4.368-11.36 11.236 4.416z"/><path d="M157.433 125.762c2.788 11.129-3.874 22.435-14.883 25.256-11.004 2.818-22.19-3.918-24.978-15.046-2.79-11.129 3.872-22.436 14.881-25.258 6.733-1.723 13.533.13 18.438 4.373" stroke="#ADD14D" stroke-width="4.722"/><path fill="#57C7E5" d="M151.166 63.069l-13.664-31.782 33.888 5.203z"/><path d="M67.021 134.912l.423 44.248 39.37-22.512-39.793-21.736zm-2.314 49.045l-.514-53.788 48.372 26.422-47.858 27.366zM239.684 96.878l24.565 13.418-24.303 13.896z" fill="#FFF"/><path d="M102.293 58.979c-7.464 0-13.537 6.14-13.537 13.687 0 7.546 6.073 13.686 13.537 13.686s13.537-6.14 13.537-13.686c0-7.547-6.073-13.687-13.537-13.687m0 29.612c-8.685 0-15.751-7.144-15.751-15.925 0-8.782 7.066-15.926 15.751-15.926 8.685 0 15.751 7.144 15.751 15.926 0 8.78-7.066 15.925-15.751 15.925" fill="#D8D8D8"/><path fill="#ACDD48" d="M268.994 86.56l-4.594-4.168 1.273-6.108 5.87-1.938 4.594 4.169-1.274 6.107z"/><path d="M89.706 38.408c-7.149 0-12.965 5.88-12.965 13.108 0 7.228 5.816 13.108 12.965 13.108 7.148 0 12.964-5.88 12.964-13.108 0-7.228-5.816-13.108-12.964-13.108m0 28.506c-8.398 0-15.23-6.907-15.23-15.398 0-8.49 6.832-15.398 15.23-15.398 8.397 0 15.229 6.907 15.229 15.398 0 8.49-6.832 15.398-15.23 15.398" fill="#FFF"/><g transform="translate(312.52 35.103)"><mask id="b" fill="#fff"><use xlink:href="#a"/></mask><path d="M38.38 46.904a23.133 23.133 0 0 1-14.607 3.28C10.904 48.79 1.557 37.072 2.936 24.063c1.377-13.01 12.97-22.468 25.839-21.07a23.274 23.274 0 0 1 9.605 3.281v-2.8A25.632 25.632 0 0 0 29.032.563C14.838-.966 2.054 9.454.536 23.802c-1.522 14.348 8.786 27.271 22.98 28.81a25.503 25.503 0 0 0 14.864-2.909v-2.799z" fill="#ADD14D" mask="url(#b)"/></g><path d="M30.669 87.23L16.793 40.228a1.353 1.353 0 0 0-.967-.933 1.343 1.343 0 0 0-1.285.369L0 54.652V80.79l29.018 8.142a1.34 1.34 0 0 0 1.32-.359c.345-.354.47-.868.33-1.343" fill="#FFF"/></g></svg>