<svg width="313" height="75" viewBox="0 0 313 75" xmlns="http://www.w3.org/2000/svg" xmlns:xlink="http://www.w3.org/1999/xlink"><title>D6D28557-68FB-439E-97C2-6A5EB6407DAE</title><defs><path d="M239.904 24H9.994C4.471 24 0 28.48 0 34.004v3.992C0 43.514 4.474 48 9.993 48h230.014l.255-.003C245.318 61.437 258.292 71 273.5 71c19.606 0 35.5-15.894 35.5-35.5 0-11.478-5.448-21.684-13.899-28.174A35.345 35.345 0 0 0 273.5 0c-15.581 0-28.818 10.038-33.596 24z" id="a"/><mask id="b" x="-2" y="-2" width="313" height="75"><path fill="#fff" d="M-2-2h313v75H-2z"/><use xlink:href="#a"/></mask><mask id="c" x="-2" y="-2" width="313" height="75"><path fill="#fff" d="M-2-2h313v75H-2z"/><use xlink:href="#a"/></mask></defs><g fill="none" fill-rule="evenodd"><g transform="translate(2 2)"><mask id="d" fill="#fff"><use xlink:href="#a"/></mask><g stroke="#E2E2E2" mask="url(#b)" stroke-width="4"><use mask="url(#c)" xlink:href="#a"/></g><path d="M273.5 71c19.606 0 35.5-15.894 35.5-35.5 0-11.478-5.448-21.684-13.899-28.174A35.345 35.345 0 0 0 273.5 0C253.894 0 238 15.894 238 35.5S253.894 71 273.5 71z" fill="#A2D43C" mask="url(#d)"/><g mask="url(#d)"><path fill="#A2D43C" d="M0 24h60v24H0zM60 24h60v24H60zM120 24h60v24h-60zM180 24h60v24h-60z"/><path d="M60 24v24M120 24v24M180 24v24" stroke="#FFF" stroke-linecap="square"/></g></g><path d="M264 38l8 8 16-16" stroke-linecap="square" stroke-width="2" stroke="#FFF"/></g></svg>