<?xml version="1.0" encoding="UTF-8"?>
<svg width="371px" height="75px" viewBox="0 0 371 75" version="1.1" xmlns="http://www.w3.org/2000/svg" xmlns:xlink="http://www.w3.org/1999/xlink">
    <!-- Generator: Sketch 42 (36781) - http://www.bohemiancoding.com/sketch -->
    <title>Quiz Progress 03</title>
    <desc>Created with Sketch.</desc>
    <defs>
        <path d="M298.26323,48 C303.319856,61.4387583 316.293354,71 331.5,71 C351.106109,71 367,55.1061086 367,35.5 C367,24.0216216 361.552359,13.815608 353.101488,7.32637104 C347.117507,2.73140431 339.62773,0 331.5,0 C315.9188,0 302.682112,10.038047 297.904076,24 L10.0067349,24 C4.47173797,24 0,28.4791101 0,34.0043725 L0,37.9956275 C0,43.5139376 4.48016784,48 10.0067349,48 L298.26323,48 Z" id="path-1"></path>
        <mask id="mask-2" maskContentUnits="userSpaceOnUse" maskUnits="objectBoundingBox" x="-2" y="-2" width="371" height="75">
            <rect x="-2" y="-2" width="371" height="75" fill="white"></rect>
            <use xlink:href="#path-1" fill="black"></use>
        </mask>
        <mask id="mask-4" maskContentUnits="userSpaceOnUse" maskUnits="objectBoundingBox" x="-2" y="-2" width="371" height="75">
            <rect x="-2" y="-2" width="371" height="75" fill="white"></rect>
            <use xlink:href="#path-1" fill="black"></use>
        </mask>
    </defs>
    <g id="Quiz-V1.2" stroke="none" stroke-width="1" fill="none" fill-rule="evenodd">
        <g id="Quiz-Screen" transform="translate(-75.000000, -3912.000000)">
            <g id="Group-2-Copy-18" transform="translate(77.000000, 3914.000000)">
                <g id="Group-3">
                    <mask id="mask-3" fill="white">
                        <use xlink:href="#path-1"></use>
                    </mask>
                    <g id="Mask" stroke="#E2E2E2" mask="url(#mask-2)" stroke-width="4">
                        <use mask="url(#mask-4)" xlink:href="#path-1"></use>
                    </g>
                    <rect id="Rectangle-8" fill="#F3C81C" mask="url(#mask-3)" x="-1" y="24" width="178" height="24"></rect>
                    <path d="M57,24 L57,48" id="Line" stroke="#FFFFFF" stroke-linecap="square"></path>
                    <path d="M117,24 L117,48" id="Line-Copy" stroke="#FFFFFF" stroke-linecap="square"></path>
                    <path d="M177,24 L177,48" id="Line-Copy-2" stroke="#E2E2E2" stroke-linecap="square"></path>
                    <path d="M237,24 L237,48" id="Line-Copy-3" stroke="#E2E2E2" stroke-linecap="square"></path>
                </g>
                <g id="sport-48px-outline_trophy" transform="translate(314.000000, 18.000000)" stroke-width="2" stroke="#999999">
                    <g id="Group">
                        <path d="M7.01996015,16.3636364 L7.01995312,16.3636364 C3.14293999,16.3636364 0,13.220696 0,9.34368325 L0,3.27272727 L6.54545455,3.27272727" id="Shape"></path>
                        <path d="M28.9800391,16.3636364 L28.9800484,16.3636364 C32.8570612,16.3636364 36,13.220696 36,9.34368325 L36,3.27272727 L29.4545455,3.27272727" id="Shape"></path>
                        <path d="M18,31.0909091 L18,24.5454545" id="Shape" stroke-linecap="square"></path>
                        <path d="M18.000011,24.5454545 L17.9999891,24.5454545 C11.6738242,24.5454545 6.54545455,19.4170849 6.54545455,13.0909201 L6.54545455,0 L29.4545455,0 L29.4545455,13.0909201 C29.4545455,19.4170849 24.3261758,24.5454545 18.000011,24.5454545 Z" id="Shape" stroke-linecap="square"></path>
                        <path d="M26.1818182,36 L9.81818182,36 L9.81818182,35.9999938 C9.81818182,33.2887802 12.0160545,31.0909091 14.7272681,31.0909091 L21.2727319,31.0909091 C23.9839455,31.0909091 26.1818182,33.2887802 26.1818182,35.9999938 L26.1818182,36 Z" id="Shape" stroke-linecap="square"></path>
                    </g>
                </g>
            </g>
        </g>
    </g>
</svg>