<svg width="352" height="190" viewBox="0 0 352 190" xmlns="http://www.w3.org/2000/svg"><title>B2FD46E4-218C-4FE3-8B3F-164BCD301E5E</title><g fill="none" fill-rule="evenodd"><g fill-rule="nonzero"><path d="M232.565 144c-.864 0-1.565.56-1.565 1.25v12.5c0 .69.701 1.25 1.565 1.25h56.348c.864 0 1.565-.56 1.565-1.25v-12.5c0-.69-.701-1.25-1.565-1.25h-56.348z" fill="#9BCED3"/><path d="M254.478 152.75h-9.391c-.866 0-1.565-.56-1.565-1.25s.7-1.25 1.565-1.25h9.391c.866 0 1.565.56 1.565 1.25s-.7 1.25-1.565 1.25zM265.435 152.75h-3.13c-.866 0-1.566-.56-1.566-1.25s.7-1.25 1.565-1.25h3.13c.866 0 1.566.56 1.566 1.25s-.7 1.25-1.565 1.25z" fill="#76B5B5"/><path d="M243.522 130.25v12.5c0 .69.701 1.25 1.565 1.25h56.348c.864 0 1.565-.56 1.565-1.25v-12.5c0-.69-.701-1.25-1.565-1.25h-56.348c-.864 0-1.565.56-1.565 1.25z" fill="#E86C60"/><path d="M267 137.75h-9.391c-.866 0-1.566-.56-1.566-1.25s.7-1.25 1.566-1.25H267c.866 0 1.565.56 1.565 1.25s-.7 1.25-1.565 1.25zM277.957 137.75h-3.13c-.866 0-1.566-.56-1.566-1.25s.7-1.25 1.565-1.25h3.13c.866 0 1.566.56 1.566 1.25s-.7 1.25-1.565 1.25z" fill="#C64B4B"/></g><path d="M0 9.998C0 4.476 4.483 0 9.991 0h332.018C347.527 0 352 4.486 352 9.998V190H0V9.998z" fill="#E2E6EE" opacity=".5"/><path fill="#F05C32" d="M221.672 159.978l-18.243-.212.933-79.616 18.242.212z"/><path fill="#F38075" d="M212.55 159.87l-9.122-.105.935-79.615 9.12.107z"/><path fill="#58C5D1" d="M184 159.325h15.69V99H184z"/><path fill="#32BEC0" d="M192 159.325h7.844V99H192z"/><path fill="#F05C32" d="M183.914 119.762h15.69v-7.58h-15.69z"/><path fill="#F2C613" d="M222.306 105.898l-18.244-.212.098-8.296 18.243.213z"/><path fill="#ADD14D" d="M225 159.012h20.3V75H225z"/><path fill="#9DC53D" d="M235 159.012h10.148V75H235z"/><path fill="#58C5D1" d="M224.896 95.652h20.299v-7.964h-20.3z"/><path d="M163.057 110.794c9.829 1.046 9.663 11.01 8.451 13.862-.026.068-.026.068-.065.15-.077-.003-.077-.003-.24-.015-3.093-.31-11.96-4.889-8.146-13.997z" fill="#ADD14D"/><path d="M162.925 111.143c-3.445 8.875 5.226 13.343 8.278 13.648.163.012.163.012.24.015.004-.003.002-.005.005-.008l-8.523-13.655z" fill="#9DC53D"/><path fill="#DDBD97" d="M26 165.014h300v-6.493H26z"/><path fill="#C4A685" d="M41 189.52h270v-25H41z"/><path d="M94.677 146.783a4.946 4.946 0 0 1 7.17 0l.46.477 7.168 7.463.461.481c1.97 2.054 1.255 3.732-1.592 3.732H88.185c-2.847 0-3.564-1.678-1.594-3.733l.462-.478c1.97-2.054 5.196-5.413 7.166-7.465l.458-.477z" fill="#F1DB13"/><path d="M98.769 145.27a4.95 4.95 0 0 0-4.092 1.513l-.458.477c-1.97 2.052-5.197 5.411-7.166 7.465l-.462.477c-1.97 2.056-1.253 3.734 1.594 3.734h10.584v-13.665z" fill="#F2C613"/><path d="M121.01 125.835c-8.305 13.806-26.233 18.263-40.047 9.965-13.814-8.297-18.286-26.205-9.978-40.013 8.304-13.806 26.232-18.263 40.045-9.966 13.813 8.298 18.284 26.21 9.98 40.014" fill="#32BEC0"/><path d="M110.841 85.713c-13.789-8.145-31.589-3.67-39.856 10.074-8.308 13.808-3.836 31.716 9.978 40.013.115.07.23.131.346.196l29.532-50.283z" fill="#58C5D1"/><path d="M95.938 147.198c-6.18 0-12.437-1.57-18.162-4.873l2.246-3.885c15.248 8.8 34.821 3.57 43.63-11.666 8.794-15.212 3.582-34.733-11.615-43.553l-1.559-.763 1.974-4.03 1.765.87c17.392 10.039 23.368 32.344 13.323 49.72-6.74 11.657-19.007 18.18-31.602 18.18" fill="#F2C613"/><path d="M80.356 136.864c-7.729-9.982-8.406-24.498-1.685-36.122 6.71-11.603 19.612-18.274 32.111-16.597l-.315 2.35c-11.555-1.55-23.508 4.653-29.742 15.433-6.244 10.8-5.638 24.256 1.508 33.486l-1.877 1.45z" fill="#E4E4E4"/><path d="M85.458 137.837c-1.286 0-2.574-.084-3.858-.257l.316-2.35c11.562 1.552 23.508-4.649 29.74-15.432 6.245-10.8 5.64-24.257-1.505-33.486l1.877-1.45c7.728 9.981 8.405 24.498 1.683 36.122-6.019 10.413-17.027 16.852-28.253 16.853" fill="#E4E4E4"/><path d="M118.276 102.644a30.413 30.413 0 0 1-15.203-4.073 30.369 30.369 0 0 1-13.397-16.025l2.234-.8a28.017 28.017 0 0 0 31.347 18.08l.424 2.332a30.282 30.282 0 0 1-5.405.486M100.152 139.792a28 28 0 0 0-12.35-14.774 28.025 28.025 0 0 0-18.996-3.308l-.424-2.332a30.389 30.389 0 0 1 34.003 19.613l-2.233.8z" fill="#E4E4E4"/><path fill="#E4E4E4" d="M82.428 136.65l-2.055-1.187 29.193-50.493 2.055 1.186z"/><path fill="#E4E4E4" d="M120.67 126.422l-50.533-29.17 1.186-2.052 50.534 29.169z"/><path d="M155.645 147.966c1.244 3.163 2.848 6.121 4.666 8.328 2.477 2.786 5.333 3.417 7.405 1.797.75-.584 1.687-1.249 3.663-1.316 1.96.067 2.892.732 3.634 1.316 2.058 1.62 4.894.989 7.353-1.797 5.183-6.341 8.623-18.867 6.862-24.682-1.75-5.79-8.078-8.717-11.622-6.604-.692.41-1.29.694-1.83.898a7.998 7.998 0 0 1-1.594.536 15.61 15.61 0 0 1 .508 3.928c0 7.563-5.44 14.013-13.079 16.512 7.639-2.499 13.078-8.949 13.078-16.512 0-1.35-.179-2.662-.508-3.928-.904.208-1.848.285-2.772.283-.165 0-.332-.006-.494-.013-1.314-.053-2.544-.218-3.585-.677-.635-.202-1.357-.517-2.224-1.027-3.57-2.113-9.942.815-11.707 6.604-1.157 3.79-.087 10.433 2.246 16.354z" fill="#F05C32"/><path d="M174.69 130.37c0-1.35-.18-2.662-.509-3.928-.904.208-1.848.285-2.772.283-.165 0-.332-.006-.494-.013-1.314-.053-2.544-.218-3.585-.677-.635-.202-1.357-.517-2.224-1.027-3.57-2.113-9.942.815-11.707 6.604-1.157 3.79-.087 10.433 2.246 16.354 10.611-.488 19.044-8.18 19.044-17.596" fill="#F38075"/><path d="M164.832 133.13a3.353 3.353 0 0 1-3.355 3.352 3.352 3.352 0 0 1-3.353-3.352 3.35 3.35 0 0 1 3.353-3.35 3.35 3.35 0 0 1 3.355 3.35" fill="#FFF"/><path d="M324.01 38.502c0 15.457-12.536 27.984-28.004 27.984-15.467 0-28.006-12.527-28.006-27.984 0-15.454 12.539-27.981 28.006-27.981 15.468 0 28.004 12.527 28.004 27.981" fill="#A5A7AA"/><path d="M318.405 38.206c0 12.527-10.164 22.686-22.702 22.686-12.538 0-22.703-10.159-22.703-22.686 0-12.529 10.165-22.685 22.703-22.685s22.702 10.156 22.702 22.685" fill="#FFF"/><path d="M295.887 15.52c-8.566 0-16.02 4.743-19.887 11.74 1.57-.045 3.145.054 4.626.221 6.748.768 12.944 2.73 18.246 7.11 6.665 5.51 10.443 12.657 12.082 20.578 4.683-4.156 7.635-10.214 7.635-16.963 0-12.53-10.164-22.685-22.702-22.685" fill="#58C5D1" opacity=".14"/><path fill="#B9B9B9" d="M295 35.638h2.38V20.52H295zM305.876 46.765L298 42.625l1.108-2.104 7.876 4.14z"/></g></svg>