<svg width="352" height="190" viewBox="0 0 352 190" xmlns="http://www.w3.org/2000/svg" xmlns:xlink="http://www.w3.org/1999/xlink"><title>CD00FD92-376A-4264-B723-FF6A028DCA53</title><defs><path d="M42.989 48.495c0 1.067-.859 1.94-1.908 1.94H1.908c-1.05 0-1.908-.873-1.908-1.94V1.94C0 .873.859 0 1.908 0H41.08c1.05 0 1.908.873 1.908 1.94v46.555z" id="a"/><path id="c" d="M7.723 7.745H.037V.189h7.686z"/><path id="e" d="M0 .367v12.187h4.8V.367H0z"/><path id="g" d="M5.05 12.554V.367H.247v12.187z"/><path id="i" d="M.077.18H12.33v28.812H.077z"/><path id="k" d="M6.239.18H.077v28.812h6.162V.181z"/><path d="M42.19 46.868c0 1.03-.841 1.871-1.87 1.871H1.91a1.877 1.877 0 0 1-1.87-1.871V1.938C.04.91.88.067 1.91.067h38.41c1.029 0 1.87.842 1.87 1.871v44.93z" id="m"/></defs><g fill="none" fill-rule="evenodd"><path d="M0 9.998C0 4.476 4.483 0 9.991 0h332.018C347.527 0 352 4.486 352 9.998V190H0V9.998z" fill="#E2E6EE" opacity=".5"/><g transform="translate(114 110)"><path d="M14.573 5.71V23.2L1.311 41.536a5.958 5.958 0 0 0-.489 6.209A5.898 5.898 0 0 0 6.104 51h28.792a5.898 5.898 0 0 0 5.282-3.255 5.958 5.958 0 0 0-.489-6.209L26.427 23.2V5.71H14.573z" fill="#FCFFFF" fill-rule="nonzero"/><path d="M30.131 6.491c.655 0 1.186-.35 1.186-.78V1.024c0-.432-.53-.78-1.186-.78H11.017c-.655 0-1.185.348-1.185.78V5.71c0 .432.53.781 1.185.781h19.114z" fill="#F8FDFD" fill-rule="nonzero"/><path d="M27.74 35.674H13.26l-8.115 9.618a.89.89 0 0 0-.098 1.063c.208.35.602.558 1.057.558h28.792c.455 0 .85-.208 1.057-.558a.89.89 0 0 0-.099-1.064l-8.113-9.617z" fill="#ADD14D" fill-rule="nonzero"/><path fill="#C7D2D3" fill-rule="nonzero" d="M14.573 5.948h11.854v3.31H14.573z"/><path d="M20 5.71h6.427V23.2l13.262 18.336a5.958 5.958 0 0 1 .489 6.209A5.898 5.898 0 0 1 34.896 51H20V5.71z" fill="#000" fill-rule="nonzero" style="mix-blend-mode:overlay" opacity=".5"/><circle fill-opacity=".5" fill="#FFF" style="mix-blend-mode:soft-light" cx="24.5" cy="39.5" r="1.5"/><circle fill-opacity=".5" fill="#FFF" style="mix-blend-mode:soft-light" cx="15" cy="43" r="1"/><circle fill-opacity=".5" fill="#FFF" style="mix-blend-mode:soft-light" cx="15.5" cy="39.5" r=".5"/></g><g transform="translate(154 123)"><path d="M5.946 4.006c-1.098 1.48-2.875 1.485-3.976 0L.988 2.68C-.11 1.201.506 0 2.343 0h3.23c1.846 0 2.456 1.195 1.355 2.681l-.982 1.325z" fill="#FBFFFF"/><path d="M3.958 0H31v27c0 5.523-4.48 10-9.993 10H13.95c-5.518 0-9.992-4.481-9.992-10V0z" fill="#FBFFFF"/><path d="M6.211 19.169h22.535v7.8a7.804 7.804 0 0 1-7.802 7.802h-6.93c-4.31 0-7.803-3.501-7.803-7.801v-7.801z" fill="#ED5F5F"/><path d="M16.577 0H31v27c0 5.523-4.48 10-9.993 10h-4.43V0z" fill-opacity=".5" fill="#000" style="mix-blend-mode:soft-light"/><ellipse fill="#FFF" style="mix-blend-mode:soft-light" opacity=".593" cx="21.535" cy="24.072" rx="1.803" ry="1.783"/><ellipse fill="#FFF" style="mix-blend-mode:soft-light" opacity=".593" cx="10.268" cy="21.843" rx=".901" ry=".892"/><ellipse fill="#FFF" style="mix-blend-mode:soft-light" opacity=".593" cx="12.521" cy="29.422" rx=".901" ry=".892"/></g><g transform="translate(31 61)" fill-rule="nonzero"><path d="M52 88.114a2.171 2.171 0 0 1-2.167-2.177v-15.24c0-1.205.971-2.178 2.167-2.178 1.196 0 2.167.973 2.167 2.177v15.24c0 1.205-.971 2.178-2.167 2.178zM2.167 88.114A2.171 2.171 0 0 1 0 85.937V53.279c0-13.84 7.592-26.423 19.812-32.832a2.163 2.163 0 0 1 2.925.923 2.187 2.187 0 0 1-.919 2.939C11.033 29.963 4.333 41.065 4.333 53.279v32.658c0 1.204-.97 2.177-2.166 2.177z" fill="#444442"/><path d="M19.5 85.937H0V55.456h8.667c5.982 0 10.833 4.875 10.833 10.886v19.595z" fill="#444442"/><path d="M38.991 15.056l-20.11 8.101 12.908 31.646c.22.535.637.96 1.168 1.184a2.149 2.149 0 0 0 1.658.005l16.037-6.608a2.18 2.18 0 0 0 1.183-2.84L38.991 15.057z" fill="#6C96D9"/><path d="M42.444 52.766l-7.83 3.226a2.149 2.149 0 0 1-1.657-.004 2.175 2.175 0 0 1-1.168-1.185L18.88 23.157l9.21-3.71 14.354 33.319z" fill-opacity=".3" fill="#000" style="mix-blend-mode:overlay"/><path d="M33.759 2.226a2.154 2.154 0 0 0-2.828-1.19L14.894 7.644c-.531.22-.956.64-1.177 1.173a2.175 2.175 0 0 0-.006 1.666l5.171 12.675 20.111-8.101-5.234-12.83z" fill="#90B2E3"/><path d="M28.188 19.409l-9.305 3.748-5.172-12.675a2.175 2.175 0 0 1 .006-1.666 2.17 2.17 0 0 1 1.177-1.173L22.57 4.48l5.618 14.928z" fill-opacity=".3" fill="#000" style="mix-blend-mode:overlay"/><path fill="#444442" d="M18.07 21.12l20.11-8.065 1.62 4.039-20.11 8.065z"/><path d="M27.421 17.37l-9.351 3.75 1.62 4.04 9.264-3.716-1.533-4.074z" fill-opacity=".5" fill="#000" style="mix-blend-mode:overlay"/><path d="M67.167 72.874H36.833a2.171 2.171 0 0 1-2.166-2.178c0-1.204.97-2.177 2.166-2.177h30.334c1.196 0 2.166.973 2.166 2.177 0 1.204-.97 2.178-2.166 2.178zM75.833 99H2.167A2.173 2.173 0 0 1 0 96.823V85.937h75.833c1.196 0 2.167.975 2.167 2.177v8.709C78 98.025 77.03 99 75.833 99z" fill="#6C96D9"/><path d="M0 96v1.911C0 98.512.97 99 2.167 99h73.666C77.03 99 78 98.512 78 97.911V96H0z" fill-opacity=".3" fill="#000" style="mix-blend-mode:overlay"/><ellipse fill="#A0C0E9" cx="9.75" cy="65.253" rx="3.25" ry="3.266"/></g><path d="M324.241 66.651c0 1.03-.841 1.872-1.87 1.872h-46.075a1.876 1.876 0 0 1-1.87-1.872v-53.78c0-1.029.841-1.871 1.87-1.871h46.075c1.029 0 1.87.842 1.87 1.872v53.78z" fill="#A5A7AA"/><path d="M324.24 66.652c0 1.03-.84 1.871-1.87 1.871l-47.945-55.651c0-1.03.842-1.872 1.87-1.872h46.076c1.028 0 1.87.842 1.87 1.872v53.78z" fill="#CACBCB"/><g transform="translate(277.954 14.783)"><mask id="b" fill="#fff"><use xlink:href="#a"/></mask><use fill="#FFF" xlink:href="#a"/><path d="M43.253 51.696S28.922 11.376.145-.414h43.108v52.11z" fill="#58C5D1" opacity=".1" mask="url(#b)"/></g><g transform="translate(295.072 49.474)"><mask id="d" fill="#fff"><use xlink:href="#c"/></mask><path d="M7.163.19H.597C-1.481 5.686 2.812 5.568 3.88 7.744 4.947 5.569 9.24 5.687 7.163.189" fill="#F1DC12" mask="url(#d)"/></g><g transform="translate(290.425 39.406)"><mask id="f" fill="#fff"><use xlink:href="#e"/></mask><path d="M3.031.367C1.241 2.239.01 11.84.01 11.84c-.076.595.305.873.847.618l3.12-1.527c.555-.227.916-.891.803-1.48L3.031.367z" fill="#ADD14D" mask="url(#f)"/></g><g transform="translate(302.43 39.406)"><mask id="h" fill="#fff"><use xlink:href="#g"/></mask><path d="M2.018.367C3.808 2.239 5.04 11.84 5.04 11.84c.076.595-.306.873-.848.618l-3.12-1.527c-.555-.227-.916-.891-.803-1.48L2.018.367z" fill="#ADD14D" mask="url(#h)"/></g><g transform="translate(292.749 21.206)"><mask id="j" fill="#fff"><use xlink:href="#i"/></mask><path d="M6.203.18C-3.756 10.7 1.324 26.909 1.732 28.993H10.675C11.081 26.908 16.163 10.7 6.203.181" fill="#F9A41A" mask="url(#j)"/></g><g transform="translate(292.749 21.206)"><mask id="l" fill="#fff"><use xlink:href="#k"/></mask><path d="M6.239.218A.81.81 0 0 1 6.203.18c-9.959 10.518-4.878 26.727-4.471 28.811h4.507V.218z" fill="#F7901E" mask="url(#l)"/></g><path d="M298.83 53c.072.057.12.09.157.105V42.839c-4.068.033-2.69 8.154-.156 10.161" fill="#ADD14D"/><path d="M298.988 42.84v10.265a.779.779 0 0 0 .157-.105c2.533-2.007 3.91-10.128-.157-10.16" fill="#9DC53D"/><path d="M304.195 31.058H293.71a28.459 28.459 0 0 0-.82 5.324h12.123a28.484 28.484 0 0 0-.818-5.324" fill="#ADD14D"/><g><path d="M264.816 66.652c0 1.03-.842 1.871-1.87 1.871H216.87a1.876 1.876 0 0 1-1.87-1.871v-53.78c0-1.03.842-1.872 1.87-1.872h46.075c1.03 0 1.87.842 1.87 1.872v53.78z" fill="#A5A7AA"/><path d="M264.816 66.652c0 1.03-.842 1.871-1.87 1.871L215 12.872c0-1.03.842-1.872 1.87-1.872h46.075c1.03 0 1.87.842 1.87 1.872v53.78z" fill="#CACBCB"/><g transform="translate(218.793 15.783)"><mask id="n" fill="#fff"><use xlink:href="#m"/></mask><use fill="#FFF" xlink:href="#m"/><path d="M42.492 50.696S28.335 11.352-.09-.153h42.582v50.849z" fill="#58C5D1" opacity=".1" mask="url(#n)"/></g><path fill="#F9C33F" d="M248.48 20.133l1.345 2.726 3.004.436-2.174 2.121.513 2.992-2.689-1.411-2.685 1.411.513-2.992-2.175-2.121 3.005-.436z"/><path fill="#F7CE70" d="M248.234 27.127v-6.493l-1.097 2.225-3.005.436 2.175 2.122-.513 2.991z"/><path d="M237.389 39.099a.85.85 0 0 1-1.011.646l-9.427-2.078a.852.852 0 0 1-.646-1.012l1.114-5.049a.851.851 0 0 1 1.01-.646l9.426 2.08a.85.85 0 0 1 .646 1.01l-1.112 5.049zM253.98 41.304l-4.366-.964.47-2.127 4.364.963z" fill="#F7E358"/><path fill="#F2C613" d="M253.177 41.126l-3.563-.787.469-2.126 3.563.786z"/><path fill="#F7E358" d="M234.366 53.903l-1.694-.935 5.547-10.06 1.692.935z"/><path fill="#F2C613" d="M246.947 53.816l-5.683-9.982 1.68-.958 5.682 9.981z"/><path d="M240.452 40.412a1.369 1.369 0 0 0 .02 2.736 1.368 1.368 0 0 0-.02-2.736m.028 4.091a2.725 2.725 0 0 1-.037-5.447 2.725 2.725 0 0 1 .037 5.448" fill="#F7E358"/><path d="M240.4 43.14a1.365 1.365 0 0 1-1.305-1.35 1.366 1.366 0 0 1 1.286-1.37l-.008-1.36a2.723 2.723 0 0 0-2.633 2.739 2.723 2.723 0 0 0 2.67 2.701l-.01-1.36zM249.68 36.934l-.822-.183.301-1.36.823.184z" fill="#F2C613"/><path fill="#B3C2CB" d="M235.391 54.39l-3.956.028-.014-1.936 3.957-.027zM249.398 54.294l-3.956.027-.013-1.935 3.956-.028z"/><path d="M251.381 35.897a.464.464 0 0 1-.551.354l-2.629-.57a.465.465 0 0 1 .198-.909l2.627.572c.25.054.408.302.355.553" fill="#F7E358"/><path d="M237.856 33.04L233.142 32l-4.713-1.04a.85.85 0 0 0-1.01.646l-.578 2.617 11.083 2.446.577-2.618a.851.851 0 0 0-.645-1.012" fill="#F2C613"/><path d="M251.49 41.342a.553.553 0 0 1-.656.425L235.3 38.338a.555.555 0 0 1-.424-.657l.71-3.292a.555.555 0 0 1 .657-.424l15.53 3.43c.298.064.488.36.424.657l-.709 3.29z" fill="#F7E358"/><path d="M251.775 37.395l-12.458-2.767-3.073-.663a.555.555 0 0 0-.657.425l-.367 1.705 16.61 3.663.368-1.705a.555.555 0 0 0-.423-.658" fill="#F2C613"/></g><g><path fill="#CCC" d="M26 166.494h300V160H26z"/><path fill="#B4B4B4" d="M37 190h11v-24H37zM304 190h11v-24h-11z"/></g><g fill-rule="nonzero"><path d="M308.522 160h-52.044a2.477 2.477 0 0 1-2.478-2.476v-42.095a2.477 2.477 0 0 1 2.478-2.477h52.044A2.477 2.477 0 0 1 311 115.43v42.095a2.477 2.477 0 0 1-2.478 2.476z" fill="#44546E"/><path d="M282.5 153.81s-5.973-2.348-21.065-2.472a1.244 1.244 0 0 1-1.24-1.236v-38.388c16.006 0 22.305 2.476 22.305 2.476v39.62zM282.5 153.81s5.973-2.348 21.065-2.472a1.244 1.244 0 0 0 1.24-1.236v-38.388c-16.006 0-22.305 2.476-22.305 2.476v39.62z" fill="#B3B3B3"/><path d="M282.5 152.571s-8.327-4.698-23.55-4.942a1.243 1.243 0 0 1-1.233-1.232v-37.143c0-.69.574-1.255 1.264-1.244 15.203.25 23.519 4.942 23.519 4.942v39.62zM282.5 152.571s8.327-4.698 23.55-4.942a1.243 1.243 0 0 0 1.233-1.232v-37.143a1.25 1.25 0 0 0-1.264-1.244c-15.203.25-23.519 4.942-23.519 4.942v39.62z" fill="#FCFCFC"/></g><g><path fill="#D7A976" d="M192 128.53h5.268v25.181H192z"/><path fill="#B07D4E" d="M192 132.506h5.268v6.627H192z"/><path fill="#D7A976" d="M240.732 128.53H246v25.181h-5.268z"/><path fill="#B07D4E" d="M240.732 132.506H246v6.627h-5.268z"/><g fill-rule="nonzero"><path d="M199.244 120.91v22.96c0 5.426 2.216 9.84 4.939 9.84s4.939-4.414 4.939-9.84v-33.894h-9.878v10.934z" fill="#FCFFFF"/><path d="M199.244 141.452v2.418c0 5.426 2.216 9.84 4.939 9.84s4.939-4.414 4.939-9.84v-12.69h-9.878v10.272z" fill="#ADD14D"/><path d="M204.183 153.71c2.723 0 4.939-4.414 4.939-9.84v-33.894h-9.878v32.254-32.254h4.939v43.735z" fill="#000" style="mix-blend-mode:soft-light" opacity=".5"/><path d="M204.512 117.265a.66.66 0 0 0-.658-.663h-4.61v1.326h4.61a.66.66 0 0 0 .658-.663zM203.195 122.566a.66.66 0 0 0-.658-.662h-3.293v1.325h3.293a.66.66 0 0 0 .658-.663zM204.512 127.867a.66.66 0 0 0-.658-.662h-4.61v1.325h4.61a.66.66 0 0 0 .658-.663z" fill="#C8E3E3"/><path d="M210.54 109.976h-13.373c-.308 0-.557-.297-.557-.663v-2.65c0-.366.25-.663.557-.663h13.373c.308 0 .558.297.558.663v2.65c0 .366-.25.663-.558.663z" fill="#F8FDFD"/><path d="M210.819 109.976h-6.687c-.154 0-.278-.297-.278-.663v-2.65c0-.366.124-.663.278-.663h6.687c.154 0 .279.297.279.663v2.65c0 .366-.125.663-.28.663z" fill="#000" style="mix-blend-mode:soft-light"/></g><g fill-rule="nonzero"><path d="M214.39 120.91v22.96c0 5.426 2.216 9.84 4.94 9.84 2.722 0 4.938-4.414 4.938-9.84v-33.894h-9.878v10.934z" fill="#FCFFFF"/><path d="M214.39 141.452v2.418c0 5.426 2.216 9.84 4.94 9.84 2.722 0 4.938-4.414 4.938-9.84v-19.978h-9.878v17.56z" fill="#58C5D1"/><path d="M219.33 153.71c2.722 0 4.938-4.414 4.938-9.84v-33.894h-9.878v32.254-32.254h4.94v43.735z" fill="#000" style="mix-blend-mode:soft-light" opacity=".5"/><path d="M219.659 117.265a.66.66 0 0 0-.659-.663h-4.61v1.326H219a.66.66 0 0 0 .659-.663zM218.341 122.566a.66.66 0 0 0-.658-.662h-3.293v1.325h3.293a.66.66 0 0 0 .658-.663zM219.659 127.867a.66.66 0 0 0-.659-.662h-4.61v1.325H219a.66.66 0 0 0 .659-.663z" fill="#C8E3E3"/><path d="M225.687 109.976h-13.374c-.307 0-.557-.297-.557-.663v-2.65c0-.366.25-.663.557-.663h13.374c.307 0 .557.297.557.663v2.65c0 .366-.25.663-.557.663z" fill="#F8FDFD"/><path d="M225.965 109.976h-6.686c-.154 0-.279-.297-.279-.663v-2.65c0-.366.125-.663.279-.663h6.686c.154 0 .279.297.279.663v2.65c0 .366-.125.663-.279.663z" fill="#000" style="mix-blend-mode:soft-light"/></g><g fill-rule="nonzero"><path d="M229.537 120.91v22.96c0 5.426 2.216 9.84 4.939 9.84s4.939-4.414 4.939-9.84v-33.894h-9.878v10.934z" fill="#FCFFFF"/><path d="M229.537 141.452v2.418c0 5.426 2.216 9.84 4.939 9.84s4.939-4.414 4.939-9.84v-25.942h-9.878v23.524z" fill="#F48176"/><path d="M234.476 153.71c2.723 0 4.939-4.414 4.939-9.84v-33.894h-9.878v32.254-32.254h4.939v43.735z" fill="#000" style="mix-blend-mode:soft-light" opacity=".5"/><path d="M234.805 117.265a.66.66 0 0 0-.659-.663h-4.61v1.326h4.61a.66.66 0 0 0 .659-.663zM233.488 122.566a.66.66 0 0 0-.659-.662h-3.292v1.325h3.292a.66.66 0 0 0 .659-.663zM234.805 127.867a.66.66 0 0 0-.659-.662h-4.61v1.325h4.61a.66.66 0 0 0 .659-.663z" fill="#C8E3E3"/><path d="M240.833 109.976H227.46c-.308 0-.558-.297-.558-.663v-2.65c0-.366.25-.663.558-.663h13.373c.308 0 .557.297.557.663v2.65c0 .366-.25.663-.557.663z" fill="#F8FDFD"/><path d="M241.112 109.976h-6.687c-.154 0-.279-.297-.279-.663v-2.65c0-.366.125-.663.279-.663h6.687c.153 0 .278.297.278.663v2.65c0 .366-.125.663-.278.663z" fill="#000" style="mix-blend-mode:soft-light"/></g><path fill="#FAD9AE" d="M192 153.711h54V161h-54z"/><path fill="#FAD9AF" d="M192 128.53h54v3.976h-54z"/></g></g></svg>